<svg width="40" height="35" viewBox="0 0 40 35" fill="none" xmlns="http://www.w3.org/2000/svg">
<path d="M37.7428 23.3672H2.25722C0.997375 23.3672 0 24.3832 0 25.5515V27.3295C0 28.4978 0.997375 29.463 2.25722 29.463H2.78215V29.971C2.78215 32.7649 5.14436 35 7.979 35H32.021C34.9081 35 37.2178 32.7141 37.2178 29.971V29.463H37.7428C38.9501 29.463 40 28.4978 40 27.2787V25.5007C40 24.3832 39.0026 23.3672 37.7428 23.3672ZM35.6955 29.971C35.6955 31.9013 34.0682 33.476 32.0735 33.476H7.92651C5.93176 33.476 4.30446 31.9013 4.30446 29.971V29.463H35.6955V29.971ZM38.4252 27.2787C38.4252 27.6342 38.1102 27.939 37.7428 27.939H2.25722C1.88976 27.939 1.5748 27.6342 1.5748 27.2787V25.5007C1.5748 25.1959 1.88976 24.8911 2.25722 24.8911H37.7953C38.1627 24.8911 38.4777 25.1959 38.4777 25.5515V27.2787H38.4252Z" fill="#81B3D2"/>
<path d="M8.50395 19.2522L11.3386 21.2842L14.2257 19.2522L17.1129 21.2842L20 19.2522L22.8347 21.2842L25.7218 19.2522L28.6089 21.2842L31.4961 19.2522L34.3832 21.2842L37.6903 18.8966L36.7979 17.6775L34.3832 19.3538L31.4961 17.3219L28.6089 19.3538L25.7218 17.3219L22.8347 19.3538L20 17.3219L17.1129 19.3538L14.2257 17.3219L11.3386 19.3538L8.50395 17.3219L5.61682 19.3538L3.20212 17.6775L2.25723 18.8966L5.61682 21.2842L8.50395 19.2522Z" fill="#81B3D2"/>
<path d="M37.2179 15.7983C37.2179 15.4935 37.2704 14.4775 37.2179 14.2743C36.8504 6.34978 29.2913 0 20 0C10.7087 0 3.09712 6.34978 2.72967 14.2743C2.72967 14.4775 2.72967 15.4935 2.72967 15.7983H37.2179ZM20 1.52395C28.399 1.52395 35.3281 7.21335 35.6431 14.2743H4.30447C4.67193 7.21335 11.6011 1.52395 20 1.52395Z" fill="#81B3D2"/>
<path d="M20 8.63581C20.5798 8.63581 21.0499 8.18095 21.0499 7.61985C21.0499 7.05874 20.5798 6.60388 20 6.60388C19.4202 6.60388 18.9501 7.05874 18.9501 7.61985C18.9501 8.18095 19.4202 8.63581 20 8.63581Z" fill="#81B3D2"/>
<path d="M15.8005 6.14619C16.3803 6.14619 16.8504 5.69133 16.8504 5.13022C16.8504 4.56912 16.3803 4.11426 15.8005 4.11426C15.2207 4.11426 14.7506 4.56912 14.7506 5.13022C14.7506 5.69133 15.2207 6.14619 15.8005 6.14619Z" fill="#81B3D2"/>
<path d="M24.1995 6.14619C24.7793 6.14619 25.2493 5.69133 25.2493 5.13022C25.2493 4.56912 24.7793 4.11426 24.1995 4.11426C23.6196 4.11426 23.1496 4.56912 23.1496 5.13022C23.1496 5.69133 23.6196 6.14619 24.1995 6.14619Z" fill="#81B3D2"/>
</svg>
