<svg width="102" height="84" viewBox="0 0 102 84" fill="none" xmlns="http://www.w3.org/2000/svg">
<path d="M0 0L50.6 59.1L101.7 0H0Z" fill="#23A9E1"/>
<path d="M50.9 0H0V22.5L50.6 84L50.9 83.6L101.6 23.2V0H50.9ZM50.9 57.1L50.6 57.5L3.7 1.8H50.9H98.1L50.9 57.1Z" fill="#491213"/>
<path d="M50.6 57.5L50.9 57.1L78.5 24.8C71.6 25.7 66.6 30.9 59.9 29.8C56.5 29.2 56.4 27.3 55.4 25.3C54.7 23.8 53.5 24 51.9 23.4C50.5 22.8 49.6 21.7 46.7 22.3C44.2 22.9 43.9 26.8 40.7 26.6C39 26.5 38.9 24.1 36.5 21.1C30.2 13.5 24.3 14.6 20.3 21.6L50.6 57.5Z" fill="#491213"/>
<path d="M23.3 32.2C23.8 32.8 24.2 33.5 24.1 34.3C24 34.9 23.2 35.8 23.8 36.1C24.5 35.2 25.3 34.2 26 33.3C25.4 33.1 20.6 27.5 20.6 26.8C19.5 27.4 18.5 28 17.4 28.5C17.6 29.2 18.7 28.5 19.3 28.5C20.1 28.6 20.7 29.1 21.3 29.7C19.6 31.1 15.4 34.7 14.9 34.8C14.7 34.8 13.8 34.2 13.8 34.7C13.8 35 14.7 35.7 14.8 35.9C15.5 36.8 16.3 37.7 17 38.6C17.6 38.3 16.9 37.9 17.2 37.4C17.5 37.1 22.1 33.2 23.3 32.2Z" fill="white"/>
<path d="M18 25.3C18.4 25.2 18.6 25.7 19 25.2C18.2 24.2 17.4 23.3 16.6 22.3C16.2 21.9 15.8 21.4 15.9 22.3C16 22.9 9.8 28 9.4 28.1C8.9 28.3 8.6 27.7 8.3 28.2C9 29.1 9.8 29.9 10.5 30.8C10.7 31.1 11 31.4 11.2 31.7C11.5 32 11.4 31 11.4 31.1C11.3 30.6 11.9 30.2 12.3 29.9C13.8 28.5 17.6 25.3 18 25.3Z" fill="white"/>
<path d="M9.2 24.4C7.4 24.9 5.6 24.2 5 22.4C4.5 20.6 5.6 18.6 7.1 17.6C8.5 16.6 10.7 16.6 11.5 18.4C11.8 19.2 11.7 20.1 11.4 20.9C11.2 21.4 10.8 21.9 11.5 22.2C12.4 21.1 13.2 20 14.1 18.9C13 18.3 12.6 17.2 11.8 16.3C10.9 15.2 9.7 14.2 8.3 14C5.4 13.6 2.7 16.6 2.5 19.2C2.4 20.7 2.9 22 3.7 23.2C4.5 24.2 5.6 24.8 6.1 26C6.4 26.1 8.8 25 9.4 24.7C9.3 24.6 9.3 24.4 9.2 24.4C8.5 24.6 9.2 24.4 9.2 24.4Z" fill="white"/>
<path d="M48.5 60.8C47.3 60 44.5 56.1 43.9 55.5C43.8 55.4 43.7 55.2 43.6 55.1C43.6 55.1 43.3 55.3 43.4 55.3C43.2 55.4 43.5 55.9 43.3 56.2C42.5 57.4 37.5 61.2 37.3 61.4C36.7 61.8 36.1 61.2 35.8 61.7C36.5 62.6 38.6 65.2 38.8 65.3C39.3 65.4 38.9 64.5 39 64.3C39.1 63.9 41.6 61.9 42.5 61.1C42.8 60.8 43.2 61.5 43.4 61.8C43.7 62.3 43.9 62.8 43.7 63.4C43.6 63.8 43 64.3 43.4 64.6C44 63.9 45.8 61.8 46 61.6C46.3 61.3 45.4 61.6 45.5 61.5C45.1 61.7 44.8 61.7 44.4 61.5C44.3 61.4 43.3 60.4 43.4 60.3C43.8 59.9 44.4 59.3 44.9 59.2C45.8 59 46.5 60.7 46.6 61.3C46.7 61.9 46.7 62.5 46.5 63.1C46.4 63.5 46 63.8 46.5 64C47.2 63 47.9 62.1 48.6 61.1C48.8 60.9 48.6 60.8 48.5 60.8C48.4 60.7 48.7 60.8 48.5 60.8Z" fill="white"/>
<path d="M38.3 56.6C40.5 54.7 40.8 51.5 39.1 49.3C37.2 46.8 33.7 46.2 31.3 48.2C29.1 50.1 28.8 53.2 30.5 55.5C32.5 58.2 35.7 58.5 38.3 56.6C39.5 55.7 38.2 56.7 38.3 56.6ZM37.8 51.9C37.2 53.4 35.6 55 34.1 55.6C32.3 56.3 31 54.8 31.7 53C32.3 51.5 33.9 49.9 35.4 49.3C37.3 48.6 38.5 50.2 37.8 51.9C37.5 52.8 37.9 51.7 37.8 51.9Z" fill="white"/>
<path d="M31.9 42C32.4 42.1 32.8 42.6 33.2 42C32.5 41.1 31.7 40.2 31 39.4C30.4 39.7 31 39.9 30.8 40.4C30.6 40.8 28.2 41.2 27.6 41.3C27.8 40.7 28.5 38.7 28.8 38.5C29.3 38.1 29.7 38.9 30.1 38.4C29.2 37.3 28.3 36.2 27.4 35.1C27.1 34.7 26.8 34.1 26.4 34.4C26.4 34.4 26.4 35.9 26.3 36.1C26.2 36.3 25.4 39.7 24.4 40.6C23.9 41 22.2 42.5 21.7 42.7C21.2 42.9 20.9 42.1 20.5 42.7C21.3 43.7 22.2 44.7 23 45.7C23.1 45.8 23.6 46.6 23.8 46.6C24.3 46.7 23.9 45.7 23.9 45.5C24.1 45.1 26.4 42.8 27.4 42.6C28.6 42.3 30.4 41.8 31.9 42C32.2 42.1 31.5 42 31.9 42Z" fill="white"/>
<path d="M69.2 52.4C69.4 53 69.5 53.7 69.4 54.4C69.3 55.3 68.4 57.3 67.2 56.7C66 56.1 65 55 64 54.1C64.8 53.2 65.5 52.4 66.9 52.8C67.3 52.9 67.6 52.8 67.2 52.5C66.8 52.3 64.1 50.5 63.9 50.7C63.6 51 64.4 51.6 64.1 52.2C63.9 52.6 63.5 53 63.2 53.4C62.5 52.8 61.3 52.1 62.1 51.1C62.6 50.4 63.4 49.9 64.2 49.8C64.8 49.7 66 50.2 66.2 49.6C65.1 49.1 64 48.6 62.9 48C63.1 48.8 59.6 52.5 58.8 53.5C58.7 53.6 58.1 54.1 58.1 54.3C58.1 54.7 58.7 54.4 58.8 54.4C59.3 54.2 65.6 59.5 65.8 59.9C65.9 60.2 65.6 60.5 65.8 60.6C65.8 60.6 66 60.8 66.1 60.8C66.5 60.3 70.6 54.8 71.5 54.6C70.7 53.4 69.9 52.2 69.1 50.9C68.5 51.3 69.1 52 69.2 52.4Z" fill="white"/>
<path d="M63 59.2C60.9 57.9 57.4 60.5 56.9 60.7C55.9 61.2 55.1 60.2 55.6 59.2C56.1 58.4 57 58 57.9 57.9C58.2 57.9 59.3 58.1 59.4 57.9C59.5 57.7 59.6 57.7 59.4 57.6C58.5 57 57.7 56.4 56.8 55.9C56.6 57 55.4 57.6 54.7 58.3C53.9 59.2 53.2 60.2 53.2 61.5C53.2 62.6 53.9 63.6 54.9 64.2C56 64.8 57.2 64.3 58.2 63.7C58.8 63.3 59.5 62.8 60.1 62.5C61.1 62 62.4 62.4 62.1 63.8C61.8 64.9 60.7 65.9 59.7 66.1C59.1 66.3 58.4 66.2 57.8 66C57.4 65.9 56.8 65.3 56.6 65.9C57.8 66.7 58.9 67.6 60.1 68.4C60.2 67.6 60.6 67.3 61.2 66.8C61.9 66.2 62.6 65.5 63.2 64.7C64.4 63 64.8 60.6 63 59.2Z" fill="white"/>
<path d="M63 59.2C64 59.7 62.4 58.7 63 59.2V59.2Z" fill="white"/>
<path d="M99.7 19.6C99 20.3 91.3 17.3 90.7 16.8C90.4 16.7 90.4 15.5 90 16C89.6 16.5 89.2 17 88.8 17.5C88.4 18 88 18.5 87.5 19C87.2 19.3 87 19.5 87.5 19.7C88.3 19.3 92.9 27 92.5 28.2C91.8 28.6 85.6 23.1 85.4 22.8C85.3 22.7 85.7 21.8 85.2 21.9C85 21.9 84.5 22.8 84.3 23C84 23.4 83.7 23.7 83.4 24.1C83.7 24.6 83.9 24.1 84.4 24.1C84.8 24.2 86.2 25.4 86.6 25.8C85.9 25.8 83.9 25.9 83.7 25.9C82.8 26 83.3 25.2 82.7 25C81.9 25.9 81.2 26.8 80.4 27.8C80 28.3 79.5 28.9 79.1 29.4C79 29.5 79.1 29.4 79.2 29.5C79.5 29.8 79.3 29.7 79.8 29.5C80.3 29.3 86.4 34.4 86.6 34.7C87 35.2 86.4 35.7 87 35.9C87.6 35.2 88.2 34.4 88.8 33.7C88.9 33.6 88.9 33.6 88.8 33.5C88.4 33.1 88.3 33.7 87.8 33.7C87.3 33.6 83.4 30.3 81.9 29.1C83.7 29 89.2 28.8 90.1 28.8C90.4 28.8 91.2 29.7 91.2 30C91.1 30.4 90.7 30.6 91.3 30.8C91.8 30.2 92.3 29.7 92.8 29.1L93 28.8C93.1 28.7 93.1 28.7 93.2 28.5L93.4 28.3C93.8 27.8 95.2 26.3 95 26.1C94.5 25.7 94.3 26.6 93.7 26C93.4 25.8 92.5 24.2 92.3 23.8C92 23.4 92.9 22.9 93.3 22.7C94.1 22.2 96.5 21.5 96.8 23C96.8 23.3 96.5 23.5 96.7 23.7C96.7 23.7 96.9 23.9 97 23.9C97.2 23.7 99.4 21.1 100.3 19.9C99.9 19.8 99.8 19.7 99.7 19.6ZM92.3 21.8C92.4 21.7 92.5 21.7 92.3 21.8C92 22 91.6 22.3 91.3 22.6C90.8 21.7 90.3 20.8 89.7 19.9C90.9 20.4 92.1 20.9 93.2 21.4C93 21.4 92.7 21.6 92.3 21.8Z" fill="white"/>
<path d="M82.6 33C80.2 31 77 31.6 75 33.8C73.1 36.1 73.3 39.5 75.6 41.4C77.9 43.3 81.3 42.8 83.2 40.6C85.1 38.3 85 34.9 82.6 33ZM82.3 39.6C81 40.9 78.9 39.7 77.8 38.9C76.7 38.1 74.7 36.3 75.9 34.8C77 33.5 79 34.6 80.1 35.3C81.3 36.1 83.5 37.9 82.4 39.5C82.5 39.4 82.5 39.4 82.3 39.6Z" fill="white"/>
<path d="M82.6 33C83.8 34 82.3 32.8 82.6 33V33Z" fill="white"/>
<path d="M82.3 39.6C82.4 39.5 82.4 39.5 82.4 39.5C82.3 39.6 82.3 39.6 82.3 39.6Z" fill="white"/>
<path d="M76 42.1C76.1 42.2 76.3 42.3 76 42.1C73.1 39.9 69.7 40.5 67.5 43.2C66.5 44.4 65.5 45.6 64.5 46.8C64.9 47.3 65.3 46.7 65.8 47C66.2 47.3 72 52.1 72.1 52.4C72.3 52.9 71.8 52.9 72.2 53.3C72.4 53.4 76.7 48.1 77.1 47.1C78 45.3 77.4 43.3 76 42.1ZM74.7 48.9C74.5 49.2 74.7 49 74 49.6C73.7 49.9 67.6 44.9 67.8 44.7C68.6 43.8 70.4 43.1 71.4 43.4C73.6 43.8 76.6 46.5 74.7 48.9Z" fill="white"/>
<path d="M50.6 57.5L50.9 57.1L78.5 24.8C71.6 25.7 66.6 30.9 59.9 29.8C56.5 29.2 56.4 27.3 55.4 25.3C54.7 23.8 53.5 24 51.9 23.4C50.5 22.8 49.6 21.7 46.7 22.3C44.2 22.9 43.9 26.8 40.7 26.6C39 26.5 38.9 24.1 36.5 21.1C30.2 13.5 24.3 14.6 20.3 21.6L50.6 57.5Z" fill="#491213"/>
<path d="M46.5 70.9L50.6 64.4L54.6 70.9L50.6 77.4L46.5 70.9Z" fill="#23A9E1"/>
<path d="M23.3 32.3C23.8 32.9 24.2 33.6 24.1 34.4C24 35 23.2 36 23.8 36.2C24.5 35.3 25.3 34.3 26 33.4C25.4 33.2 20.6 27.6 20.6 26.9C19.5 27.5 18.5 28.1 17.4 28.6C17.6 29.3 18.7 28.6 19.3 28.6C20.1 28.7 20.7 29.2 21.3 29.8C19.6 31.2 15.4 34.8 14.9 34.9C14.7 34.9 13.8 34.3 13.8 34.8C13.8 35.1 14.7 35.8 14.8 36C15.5 36.9 16.3 37.8 17 38.7C17.6 38.4 16.9 38 17.2 37.5C17.5 37.1 22.1 33.2 23.3 32.3Z" fill="white"/>
<path d="M18 25.3C18.4 25.2 18.6 25.7 19 25.2C18.2 24.2 17.4 23.3 16.6 22.3C16.2 21.9 15.8 21.4 15.9 22.3C16 22.9 9.8 28 9.4 28.1C8.9 28.3 8.6 27.7 8.3 28.2C9 29.1 9.8 29.9 10.5 30.8C10.7 31.1 11 31.4 11.2 31.7C11.5 32 11.4 31 11.4 31.1C11.3 30.6 11.9 30.2 12.3 29.9C13.8 28.6 17.6 25.3 18 25.3Z" fill="white"/>
<path d="M9.2 24.4C7.4 24.9 5.5 24.2 5 22.4C4.5 20.6 5.6 18.6 7.1 17.6C8.5 16.6 10.7 16.6 11.5 18.4C11.8 19.2 11.7 20.1 11.4 20.9C11.2 21.4 10.8 21.9 11.5 22.2C12.4 21.1 13.2 20 14.1 18.9C13 18.3 12.6 17.2 11.8 16.3C10.9 15.2 9.7 14.2 8.3 14C5.4 13.6 2.7 16.6 2.5 19.2C2.4 20.7 2.9 22 3.7 23.2C4.5 24.2 5.6 24.8 6.1 26C6.4 26.1 8.8 25 9.4 24.7C9.3 24.6 9.3 24.5 9.2 24.4C8.5 24.6 9.2 24.4 9.2 24.4Z" fill="white"/>
<path d="M48.5 60.8C47.3 60 44.5 56.1 43.9 55.5C43.8 55.4 43.7 55.2 43.6 55.1C43.6 55.1 43.3 55.3 43.4 55.3C43.2 55.4 43.5 55.9 43.3 56.2C42.5 57.4 37.5 61.2 37.3 61.4C36.7 61.8 36.1 61.2 35.8 61.7C36.5 62.6 38.6 65.2 38.8 65.3C39.3 65.4 38.9 64.5 39 64.3C39.1 63.9 41.6 61.9 42.5 61.1C42.8 60.8 43.2 61.5 43.4 61.8C43.7 62.3 43.9 62.8 43.7 63.4C43.6 63.8 43 64.3 43.4 64.6C44 63.9 45.8 61.8 46 61.6C46.3 61.3 45.4 61.6 45.5 61.5C45.1 61.7 44.8 61.7 44.4 61.5C44.3 61.4 43.3 60.4 43.4 60.3C43.8 59.9 44.4 59.3 44.9 59.2C45.8 59 46.5 60.7 46.6 61.3C46.7 61.9 46.7 62.5 46.5 63.1C46.4 63.5 46 63.8 46.5 64C47.2 63 47.9 62.1 48.6 61.1C48.8 60.9 48.6 60.8 48.5 60.8C48.4 60.7 48.7 60.8 48.5 60.8Z" fill="white"/>
<path d="M38.3 56.6C40.5 54.7 40.8 51.5 39.1 49.3C37.2 46.8 33.7 46.2 31.3 48.2C29.1 50.1 28.8 53.2 30.5 55.5C32.5 58.2 35.7 58.5 38.3 56.6C39.5 55.7 38.2 56.7 38.3 56.6ZM37.8 51.9C37.2 53.4 35.6 55 34.1 55.6C32.3 56.3 31 54.8 31.7 53C32.4 51.5 33.9 49.9 35.4 49.3C37.3 48.6 38.5 50.2 37.8 51.9C37.4 52.8 37.9 51.7 37.8 51.9Z" fill="white"/>
<path d="M31.9 42C32.4 42.1 32.8 42.5 33.2 42C32.5 41.1 31.7 40.2 31 39.4C30.4 39.7 31 39.9 30.8 40.4C30.6 40.8 28.2 41.2 27.6 41.3C27.8 40.7 28.5 38.7 28.8 38.5C29.3 38.1 29.7 38.9 30.1 38.4C29.2 37.3 28.3 36.2 27.4 35.1C27.1 34.7 26.8 34.1 26.4 34.4C26.4 34.4 26.4 35.9 26.3 36.1C26.2 36.3 25.4 39.7 24.4 40.6C23.9 41 22.2 42.5 21.7 42.7C21.2 42.9 20.9 42.1 20.5 42.7C21.3 43.7 22.2 44.7 23 45.7C23.1 45.8 23.6 46.6 23.8 46.6C24.3 46.7 23.9 45.7 23.9 45.5C24.1 45.1 26.4 42.8 27.4 42.6C28.6 42.4 30.4 41.9 31.9 42C32.2 42.1 31.5 42 31.9 42Z" fill="white"/>
<path d="M25.6 22.9C21.6 22.7 23.2 18.9 26 18.1C28.6 17.3 34.1 19.8 35.8 21.5C33 22.4 29.4 22.2 26.4 22.4C26.2 19.2 25.4 20.3 25.6 22.9Z" fill="#DC6243"/>
<path d="M26.6 27.7C24.6 26.1 25.2 22.4 28.4 23.6C32.4 25.7 27.5 26.8 26.6 27.7Z" fill="#DC6243"/>
<path d="M35.1 35.4C26.5 35.3 32.3 22.1 35.2 22.9C38.6 24 38.2 35.5 35.1 35.4Z" fill="#DC6243"/>
<path d="M41.2 31.1C40.4 33.6 38.8 34.1 39 31C39.2 27.5 41.5 28.3 43.9 27C45.9 25.9 47 21.8 50.5 24.2C52.1 25.3 53.9 24.4 54.4 26C54.4 25.9 49.9 36.3 52.4 36.3C47.4 36.3 49.6 30.4 51.5 26.4C49.7 27.3 46.7 33.1 49.1 34C47.8 35.7 43.9 37.9 41.9 36.3C40.4 35.2 41.2 33.1 41.2 31.1Z" fill="#DC6243"/>
<path d="M45.3 40.7C41.8 41.7 37.2 39.5 42.8 38.4C46.3 37.7 50 39.1 45.3 40.7C45.4 40.7 45.2 40.7 45.3 40.7Z" fill="#DC6243"/>
<path d="M49.7 40.6C49 38.9 50.3 37 52.4 38.4C54.2 39.6 51.5 41.5 49.7 40.6Z" fill="#DC6243"/>
<path d="M46.7 45.2C44.3 44.5 36.2 44.6 41.5 42.4C43.2 41.8 51.7 42.6 46.7 45.2Z" fill="#DC6243"/>
<path d="M49.9 44.9C49.9 43.9 49.4 42.2 51.3 43C53.5 43.8 49.9 45.6 49.9 44.9C49.9 44.9 49.9 44.7 49.9 44.9Z" fill="#DC6243"/>
<path d="M57.2 48.5C55.8 47.3 54.3 47.2 53 48.5C51.2 45.2 44.7 46.3 41.6 45.8C43.2 49.9 56.4 50.7 57.2 48.5Z" fill="#DC6243"/>
<path d="M55.3 51C52.1 50.9 48.6 50.4 45.7 51.1C47.6 51.6 52.1 52.9 47.9 54C49.4 56.2 51.9 56 53.5 54.1C52.8 53.8 52.5 53.4 51.9 53C53.5 52.7 55.1 51.8 55.3 51Z" fill="#DC6243"/>
<path d="M58.9 47.1C53.6 44 54.9 41.7 59.3 39.5C61.6 38.4 66.6 34.3 68.7 35.6C65.4 39.5 62.1 43.3 58.9 47.1Z" fill="#DC6243"/>
<path d="M55.1 39.8C50.6 35.2 61.8 35.6 63.6 34C64.9 34.4 74.4 25.7 76.7 26.3C75 28.2 71.5 34.4 68.9 34.4C66.9 34.4 64.9 34.1 63.4 35.5C61.2 37.6 57.5 38.6 55.1 39.8Z" fill="#F49774"/>
<path d="M56.6 34.2C54.1 35.5 51.8 30.3 56.1 30.8C58.9 31.1 61.8 30.6 64.4 31C62.4 33.3 59.7 34.6 56.6 34.2Z" fill="#F4B1A4"/>
<path d="M69.2 52.5C69.4 53.1 69.5 53.8 69.4 54.5C69.3 55.4 68.4 57.4 67.2 56.8C66 56.2 65 55.1 64 54.2C64.8 53.3 65.5 52.5 66.9 52.9C67.3 53 67.6 52.9 67.2 52.6C66.8 52.4 64.1 50.6 63.9 50.8C63.6 51.1 64.4 51.7 64.1 52.3C63.9 52.7 63.5 53.1 63.2 53.5C62.5 52.9 61.3 52.2 62.1 51.2C62.6 50.5 63.4 50 64.2 49.9C64.8 49.8 66 50.3 66.2 49.7C65.1 49.2 64 48.7 62.9 48.1C63.1 48.9 59.6 52.6 58.8 53.6C58.7 53.7 58.1 54.2 58.1 54.4C58.1 54.8 58.7 54.5 58.8 54.5C59.3 54.3 65.6 59.6 65.8 60C65.9 60.3 65.6 60.6 65.8 60.7C65.8 60.7 66 60.9 66.1 60.9C66.5 60.4 70.6 54.9 71.5 54.7C70.7 53.5 69.9 52.3 69.1 51C68.5 51.3 69.1 52 69.2 52.5Z" fill="white"/>
<path d="M63 59.2C60.9 57.9 57.4 60.5 56.9 60.7C55.9 61.2 55.1 60.2 55.6 59.2C56.1 58.4 57 58 57.9 57.9C58.2 57.9 59.2 58.1 59.4 57.9C59.5 57.7 59.6 57.7 59.4 57.6C58.5 57 57.7 56.4 56.8 55.9C56.6 57 55.4 57.6 54.7 58.3C53.9 59.2 53.2 60.2 53.2 61.5C53.2 62.6 53.9 63.6 54.9 64.2C56 64.8 57.2 64.3 58.2 63.7C58.8 63.3 59.5 62.8 60.1 62.5C61.1 62 62.4 62.4 62.1 63.8C61.8 64.9 60.7 65.9 59.7 66.1C59.1 66.3 58.4 66.2 57.8 66C57.4 65.9 56.8 65.3 56.6 65.9C57.8 66.7 58.9 67.6 60.1 68.4C60.2 67.6 60.6 67.3 61.2 66.8C61.9 66.2 62.6 65.5 63.2 64.7C64.4 63 64.8 60.6 63 59.2Z" fill="white"/>
<path d="M63 59.2C64 59.8 62.4 58.7 63 59.2V59.2Z" fill="white"/>
<path d="M99.7 19.6C99 20.3 91.3 17.3 90.7 16.8C90.4 16.7 90.4 15.5 90 16C89.6 16.5 89.2 17 88.8 17.5C88.4 18 88 18.5 87.5 19C87.2 19.3 87 19.5 87.5 19.7C88.3 19.3 92.9 27 92.5 28.2C91.8 28.6 85.6 23.1 85.4 22.8C85.3 22.7 85.7 21.8 85.2 21.9C85 21.9 84.5 22.8 84.3 23C84 23.4 83.7 23.7 83.4 24.1C83.7 24.6 83.9 24.1 84.4 24.1C84.8 24.2 86.2 25.4 86.6 25.8C85.9 25.8 83.9 25.9 83.7 25.9C82.8 26 83.3 25.2 82.7 25C81.9 25.9 81.2 26.8 80.4 27.8C80 28.3 79.5 28.9 79.1 29.4C79 29.5 79.1 29.4 79.1 29.5C79.4 29.8 79.2 29.7 79.7 29.5C80.2 29.3 86.3 34.4 86.5 34.7C86.9 35.1 86.3 35.7 86.9 35.9C87.5 35.2 88.1 34.4 88.7 33.7C88.8 33.6 88.8 33.6 88.7 33.5C88.3 33.1 88.2 33.7 87.7 33.7C87.2 33.6 83.3 30.3 81.8 29.1C83.6 29 89.1 28.8 90 28.8C90.3 28.8 91.1 29.7 91.1 30C91 30.4 90.6 30.6 91.2 30.8C91.7 30.2 92.2 29.7 92.7 29.1L92.9 28.8C93 28.7 93 28.7 93.1 28.5L93.3 28.3C93.7 27.8 95.1 26.3 94.9 26.2C94.4 25.8 94.2 26.7 93.6 26.1C93.3 25.9 92.4 24.3 92.2 23.9C91.9 23.5 92.8 23 93.2 22.8C94 22.3 96.4 21.6 96.7 23.1C96.7 23.4 96.4 23.6 96.6 23.8C96.6 23.8 96.8 24 96.9 24C97.1 23.8 99.3 21.2 100.2 20C99.9 19.8 99.8 19.7 99.7 19.6ZM92.3 21.8C92.4 21.8 92.5 21.7 92.3 21.8C92 22 91.6 22.3 91.3 22.6C90.8 21.7 90.3 20.8 89.7 19.9C90.9 20.4 92.1 20.9 93.2 21.4C93 21.5 92.7 21.6 92.3 21.8Z" fill="white"/>
<path d="M82.6 33C80.2 31 77 31.6 75 33.8C73.1 36.1 73.3 39.5 75.6 41.4C77.9 43.3 81.3 42.8 83.2 40.6C85.1 38.3 85 34.9 82.6 33ZM82.3 39.6C82.3 39.6 82.3 39.7 82.3 39.6C81 40.9 78.9 39.7 77.8 38.9C76.7 38.1 74.7 36.3 75.9 34.8C77 33.5 79 34.6 80.1 35.3C81.3 36.1 83.5 37.9 82.4 39.5C82.5 39.4 82.5 39.4 82.3 39.6Z" fill="white"/>
<path d="M82.6 33C83.8 34 82.3 32.8 82.6 33V33Z" fill="white"/>
<path d="M82.3 39.7C82.3 39.6 82.3 39.6 82.3 39.7C82.4 39.6 82.4 39.6 82.4 39.6C82.3 39.6 82.3 39.7 82.3 39.7Z" fill="white"/>
<path d="M76 42.1C76.1 42.2 76.3 42.4 76 42.1C73.1 39.9 69.7 40.5 67.5 43.2C66.5 44.4 65.5 45.6 64.5 46.8C64.9 47.3 65.3 46.7 65.8 47C66.2 47.3 72 52.1 72.1 52.4C72.3 52.9 71.8 52.9 72.2 53.3C72.4 53.4 76.7 48.1 77.1 47.1C78 45.3 77.4 43.4 76 42.1ZM74.7 48.9C74.5 49.2 74.7 49 74 49.6C73.7 49.9 67.6 44.9 67.8 44.7C68.6 43.8 70.4 43.1 71.4 43.4C73.6 43.9 76.6 46.6 74.7 48.9Z" fill="white"/>
</svg>
